<svg width="361" height="327" viewBox="0 0 361 327" fill="none" xmlns="http://www.w3.org/2000/svg">
  <defs>
    <linearGradient id="grad1" x1="0%" y1="0%" x2="100%" y2="100%">
      <stop offset="0%" style="stop-color:#14c1c7;stop-opacity:1" />
      <stop offset="100%" style="stop-color:#674edc;stop-opacity:1" />
    </linearGradient>
    <linearGradient id="grad2" x1="100%" y1="0%" x2="0%" y2="100%">
      <stop offset="0%" style="stop-color:#674edc;stop-opacity:1" />
      <stop offset="100%" style="stop-color:#904db9;stop-opacity:1" />
    </linearGradient>
  </defs>
  <path d="M180.5,0 C270,0 361,27 361,109 C361,191 270,254 180.5,327 C91,254 0,191 0,109 C0,27 91,0 180.5,0 Z" fill="url(#grad1)" />
  <path d="M180.5,0 C270,0 361,27 361,109 C361,191 270,254 180.5,327 C91,254 0,191 0,109 C0,27 91,0 180.5,0 Z" fill="url(#grad2)" />
  <circle cx="180.5" cy="163.5" r="61" fill="#e3e4ff" />
  <path d="M180.5,127.5 C167.75,127.5 157.5,137.75 157.5,150.5 C157.5,163.25 167.75,173.5 180.5,173.5 C193.25,173.5 203.5,163.25 203.5,150.5 C203.5,137.75 193.25,127.5 180.5,127.5 Z" fill="#f28c03" />
  <rect x="174.5" y="150" width="12" height="32" fill="#f28c03" />
  <rect x="171.5" y="165" width="18" height="12" fill="#f28c03" />
</svg>
