<svg xmlns="http://www.w3.org/2000/svg" viewBox="0 0 630 630">
  <rect width="630" height="630" fill="#f7df1e"/>
  <path d="M423.3 491.3c8.4 13.8 19.2 24 38.4 24 16.1 0 26.4-8 26.4-19 0-13.1-10.4-17.7-27.8-25.4l-9.5-4.1c-27.6-11.8-45.9-26.6-45.9-57.9 0-28.8 21.9-50.8 56-50.8 24.3 0 41.9 8.5 54.4 30.8l-29.8 19.1c-6.5-11.8-13.5-16.4-24.6-16.4-11.2 0-18.3 7.1-18.3 16.4 0 11.5 7.1 16.1 23.4 23.1l9.5 4.1c32.2 13.8 50.4 27.8 50.4 59.7 0 34.2-26.9 52.9-63.1 52.9-35.4 0-58.2-17-69.3-39.3l31.4-18.2zm-152.5 3.4c6.4 11.5 12.2 21.2 26.1 21.2 13.3 0 21.7-5.2 21.7-25.4V317.4h40.3v173.1c0 41.8-24.5 60.8-60.3 60.8-32.2 0-50.8-16.6-60.3-36.8l32.5-19.8z" fill="#000"/>
</svg>
