<svg width="512" height="512" xmlns="http://www.w3.org/2000/svg">
  <defs>
    <linearGradient id="grad1" x1="0%" y1="0%" x2="100%" y2="0%">
      <stop offset="0%" style="stop-color:rgb(0,255,255);stop-opacity:1" />
      <stop offset="100%" style="stop-color:rgb(255,0,255);stop-opacity:1" />
    </linearGradient>
    <linearGradient id="grad2" x1="0%" y1="0%" x2="100%" y2="100%">
      <stop offset="0%" style="stop-color:rgb(0,255,255);stop-opacity:1" />
      <stop offset="100%" style="stop-color:rgb(0,0,255);stop-opacity:1" />
    </linearGradient>
  </defs>
  <polygon points="256,0 512,256 256,512 0,256" fill="url(#grad1)" />
  <polygon points="256,0 512,256 256,512 0,256" fill="url(#grad2)" />
  <circle cx="256" cy="256" r="100" fill="white" />
  <circle cx="256" cy="256" r="90" fill="url(#grad2)" />
  <circle cx="256" cy="256" r="80" fill="url(#grad1)" />
  <circle cx="256" cy="256" r="60" fill="white" />
  <path d="M276,276 L276,236 L296,236 L296,216 L276,216 L276,196 L256,196 L256,216 L236,216 L236,236 L256,236 L256,276 Z" fill="orange" />
</svg>
