<svg width="100" height="100" viewBox="0 0 24 24" fill="none" xmlns="http://www.w3.org/2000/svg">
  <path d="M23.4981 6.18695C23.3636 5.69464 23.1096 5.24967 22.7643 4.89358C22.419 4.53749 21.9945 4.28226 21.5281 4.14884C19.6281 3.64685 12 3.64685 12 3.64685C12 3.64685 4.37216 3.64685 2.47189 4.14884C2.00553 4.28226 1.581 4.53749 1.2357 4.89358C0.8904 5.24967 0.636393 5.69464 0.501861 6.18695C0 8.09438 0 12.0002 0 12.0002C0 12.0002 0 15.9061 0.501861 17.8135C0.636393 18.3058 0.8904 18.7508 1.2357 19.1069C1.581 19.463 2.00553 19.7182 2.47189 19.8516C4.37216 20.3536 12 20.3536 12 20.3536C12 20.3536 19.6281 20.3536 21.5281 19.8516C21.9945 19.7182 22.419 19.463 22.7643 19.1069C23.1096 18.7508 23.3636 18.3058 23.4981 17.8135C24 15.9061 24 12.0002 24 12.0002C24 12.0002 24 8.09438 23.4981 6.18695ZM9.99588 15.2011V8.79922L15.6188 12.0002L9.99588 15.2011Z" fill="white"/>
</svg>
